# xmcd CD database file
# Copyright (C) 1993-1998 Ti Kan
#
# Track frame offsets:
#  183
#  17630
#  32495
#  44595
#  67273
#  82070
#  99288
#  116765
#  136398
#  153530
#  173065
#  189485
#
# Disc length: 2778 seconds
#
# Revision: 1
# Processed by: cddbd v1.4b41PL1 Copyright (c) Steve Scherf et al.
# Submitted via: CDWizzard Release:4.35
#
DISCID=a10ad80c
DTITLE=Comsat Angels - Unravelled (Dutch)
DYEAR=1900
DGENRE=
TTITLE0=After The Rain
TTITLE1=Always Near
TTITLE2=Beautiful Monster
TTITLE3=Cutting Edge
TTITLE4=Field Of Tall Flowers
TTITLE5=ss 100X
TTITLE6=Our Secret
TTITLE7=Storm Of Change
TTITLE8=Citadel
TTITLE9=Driving
TTITLE10=My Mind's Eye
TTITLE11=Shiva Descending
EXTD=
EXTT0=
EXTT1=
EXTT2=
EXTT3=
EXTT4=
EXTT5=
EXTT6=
EXTT7=
EXTT8=
EXTT9=
EXTT10=
EXTT11=
PLAYORDER=
